<?xml version="1.0" encoding="utf-8"?>
<!-- Generator: Adobe Illustrator 17.0.2, SVG Export Plug-In . SVG Version: 6.00 Build 0)  -->
<!DOCTYPE svg PUBLIC "-//W3C//DTD SVG 1.1//EN" "http://www.w3.org/Graphics/SVG/1.1/DTD/svg11.dtd">
<svg version="1.1" id="logo_1_" xmlns="http://www.w3.org/2000/svg" xmlns:xlink="http://www.w3.org/1999/xlink" x="0px" y="0px"
	 width="138px" height="122px" viewBox="0 0 138 122" enable-background="new 0 0 138 122" xml:space="preserve">
<g id="Ellipse">
	<g>
		<path fill="#F3F3F3" d="M59.938,3c21.754,0,41.295,12.129,50.998,31.653l0.44,0.884l0.969,0.189
			C124.313,38.056,133,48.619,133,60.844c0,12.67-9.057,23.299-21.537,25.275l-0.975,0.154l-0.47,0.868
			C100.036,105.559,80.847,117,59.938,117C28.542,117,3,91.43,3,60S28.542,3,59.938,3 M59.938,1C27.387,1,1,27.415,1,60
			s26.387,59,58.938,59c22.39,0,41.863-12.498,51.839-30.906C124.937,86.011,135,74.605,135,60.844
			c0-13.428-9.582-24.61-22.274-27.081C103.078,14.348,83.07,1,59.938,1L59.938,1z"/>
	</g>
</g>
<g id="mo__x0D_">
	<g id="mo">
		<path fill="#FFFFFF" d="M74.711,78.252H65.62V58.284c0-5.637-2.103-8.218-5.563-8.218c-3.528,0-7.056,3.056-8.412,7.471v20.715
			h-9.091V58.284c0-5.705-2.103-8.218-5.495-8.218c-3.528,0-7.123,2.988-8.48,7.403v20.783h-9.091V42.663h8.209v6.588
			c2.646-4.618,7.395-7.199,13.229-7.199c5.902,0,9.091,3.328,10.041,7.539c2.85-4.89,7.462-7.539,13.093-7.539
			c8.752,0,10.652,7.131,10.652,13.991V78.252z"/>
		<path fill="#FFFFFF" d="M80.348,60.525c0-9.916,7.123-18.474,18.656-18.474s18.588,8.558,18.588,18.474
			c0,9.78-6.987,18.405-18.588,18.405S80.348,70.306,80.348,60.525z M99.004,71.188c5.224,0,9.294-4.482,9.294-10.731
			c0-6.18-4.07-10.663-9.294-10.663s-9.294,4.55-9.294,10.731C89.71,66.774,93.78,71.188,99.004,71.188z"/>
	</g>
</g>
</svg>
